<?xml version="1.0" encoding="UTF-8" standalone="no"?>
<!DOCTYPE svg PUBLIC "-//W3C//DTD SVG 1.1//EN" "http://www.w3.org/Graphics/SVG/1.1/DTD/svg11.dtd">
<svg width="100%" height="100%" viewBox="0 0 1594 348" version="1.1" xmlns="http://www.w3.org/2000/svg" xmlns:xlink="http://www.w3.org/1999/xlink" xml:space="preserve" xmlns:serif="http://www.serif.com/" style="fill-rule:evenodd;clip-rule:evenodd;stroke-linejoin:round;stroke-miterlimit:2;">
    <g transform="matrix(1,0,0,1,-280.61,-69.79)">
        <path d="M401.47,74.87L401.47,340C401.47,390 374.81,417.7 322.76,417.7C309.05,417.7 290.51,412.87 280.61,406.27L288.48,385.96C295.59,389.51 307.48,392.81 324.28,392.81C356.28,392.81 373.03,375.81 373.03,343.55L373.03,74.87L401.47,74.87Z" style="fill:rgb(35,31,32);fill-rule:nonzero;"/>
    </g>
    <g transform="matrix(1,0,0,1,-325.476,-69.79)">
        <path d="M716.82,393.52C697.27,407.24 660.71,417.65 624.65,417.65C523.09,417.65 465.2,346 465.2,244.48C465.2,143.68 525.12,69.79 630.49,69.79C659.69,69.79 689.14,78.68 705.14,86.55L696.25,107.88C682.25,102.55 657.15,94.68 628.97,94.68C549.75,94.68 496.17,145.97 496.17,240.17C496.17,334.62 543.91,392.76 628.97,392.76C653.34,392.76 676.45,386.42 687.87,381.34L687.87,265.34L618.56,265.09L618.56,242.7L716.82,242.7L716.82,393.52Z" style="fill:rgb(35,31,32);fill-rule:nonzero;"/>
    </g>
    <g transform="matrix(1,0,0,1,-365.701,-69.79)">
        <path d="M958.79,370.17C958.79,388.7 966.41,396.32 978.09,396.32C982.923,396.334 987.701,395.293 992.09,393.27L995.65,412.27C992.09,414.27 982.65,417.61 972.8,417.61C949.44,417.61 935.22,401.86 933.95,375.71C912.11,402.37 882.15,417.61 852.45,417.61C811.06,417.61 778.3,389.68 778.3,349.61C778.3,303.61 816.64,278.77 866.92,273.18C888.037,271.031 909.33,271.286 930.39,273.94L930.39,241.69C930.39,198.27 913.39,172.12 867.17,172.12C838.99,172.12 812.58,182.53 800.17,189.64L791,170.09C803.44,162.22 834.42,147.49 870,147.49C928.15,147.49 958.87,182.27 958.87,237.37L958.79,370.17ZM859.51,393.52C885.92,393.52 912.33,377.52 930.35,354.68L930.35,293.74C910.887,291.277 891.203,291.106 871.7,293.23C834.38,297.55 808,313.54 808,346C808,374.23 826.51,393.52 859.51,393.52Z" style="fill:rgb(35,31,32);fill-rule:nonzero;"/>
    </g>
    <g transform="matrix(1,0,0,1,-405.926,-69.79)">
        <path d="M1076.35,152.57L1080.67,189.64C1105.8,167.8 1140.33,147.49 1175.88,147.49C1229.71,147.49 1255.35,182.78 1255.35,241.43L1255.35,412.57L1226.92,412.57L1226.92,246C1226.92,198 1208.38,173.39 1168.01,173.39C1139.57,173.39 1105.8,192.18 1083.46,211.73L1083.46,412.57L1055,412.57L1055,152.57L1076.35,152.57Z" style="fill:rgb(35,31,32);fill-rule:nonzero;"/>
    </g>
    <path d="M923.614,105.63L923.614,271.43C923.614,309.26 938.614,323.73 973.124,323.73C984.544,323.73 998.764,321.73 1006.63,319.16L1011.96,341C1001.55,344.55 983.274,347.86 968.804,347.86C921.574,347.86 895.424,324.75 895.424,277.52L895.424,105.63L849.424,105.63L849.424,86.84L896.144,84.05L897.414,25.14L922.804,20.32L922.824,82.78L1041.71,82.812L1042.98,25.14L1068.37,20.32L1068.39,82.78L1148.39,82.78L1148.39,105.63L1069.18,105.63L1069.18,271.43C1069.18,309.26 1084.18,323.73 1118.69,323.73C1130.11,323.73 1144.33,321.73 1152.2,319.16L1157.53,341C1147.12,344.55 1128.84,347.86 1114.37,347.86C1067.14,347.86 1040.99,324.75 1040.99,277.52L1040.99,105.63L923.614,105.63Z" style="fill:rgb(35,31,32);fill-rule:nonzero;"/>
    <g transform="matrix(1,0,0,1,-536.677,-69.79)">
        <path d="M1716.19,376.77C1729.65,383.62 1755.8,393.27 1788.05,393.27C1822.33,393.27 1845.94,378.04 1845.94,350.87C1845.94,325.22 1829.94,311.26 1788.3,294.75L1765.45,285.61C1729.91,271.4 1711.12,249.81 1711.12,217.61C1711.12,174.7 1749.2,147.53 1795.12,147.53C1827.87,147.53 1853.26,157.69 1863.12,162.53L1855.5,185.13C1845.85,181.32 1822.24,172.18 1793.29,172.18C1760.29,172.18 1738.96,189.7 1738.96,215.34C1738.96,236.92 1746.83,250.13 1789.48,267.34L1812.59,276.48C1851.18,291.97 1874.03,313.3 1874.03,349.1C1874.03,390.23 1842.03,417.66 1786.18,417.66C1751.4,417.66 1722.71,408.26 1707.18,398.87L1716.19,376.77Z" style="fill:rgb(35,31,32);fill-rule:nonzero;"/>
    </g>
</svg>
